<svg xmlns="http://www.w3.org/2000/svg" width="1280" height="640" viewBox="0 0 1280 640">
  <defs>
    <linearGradient id="bg" x1="0" y1="0" x2="1" y2="1">
      <stop offset="0" stop-color="#071317"/>
      <stop offset="0.52" stop-color="#0b2025"/>
      <stop offset="1" stop-color="#0e171b"/>
    </linearGradient>
    <linearGradient id="hub" x1="0" y1="0" x2="1" y2="1">
      <stop offset="0" stop-color="#f7fffb"/>
      <stop offset="0.52" stop-color="#dff8ef"/>
      <stop offset="1" stop-color="#aee6d7"/>
    </linearGradient>
    <linearGradient id="screen" x1="0" y1="0" x2="1" y2="1">
      <stop offset="0" stop-color="#132a32"/>
      <stop offset="1" stop-color="#071115"/>
    </linearGradient>
    <linearGradient id="phoneGlass" x1="0" y1="0" x2="1" y2="1">
      <stop offset="0" stop-color="#1c3c45"/>
      <stop offset="0.62" stop-color="#0a1a20"/>
      <stop offset="1" stop-color="#05090c"/>
    </linearGradient>
    <linearGradient id="accent" x1="0" y1="0" x2="1" y2="0">
      <stop offset="0" stop-color="#5eead4"/>
      <stop offset="0.54" stop-color="#8bffd0"/>
      <stop offset="1" stop-color="#f7c948"/>
    </linearGradient>
    <filter id="softShadow" x="-30%" y="-30%" width="160%" height="170%">
      <feDropShadow dx="0" dy="22" stdDeviation="24" flood-color="#000000" flood-opacity="0.42"/>
    </filter>
    <pattern id="grid" width="40" height="40" patternUnits="userSpaceOnUse">
      <path d="M 40 0 L 0 0 0 40" fill="none" stroke="#173139" stroke-width="1" opacity="0.42"/>
    </pattern>
    <style>
      .font { font-family: -apple-system, BlinkMacSystemFont, "SF Pro Display", "Helvetica Neue", Arial, sans-serif; }
      .mono { font-family: "SF Mono", "Menlo", "Consolas", monospace; }
      .label { fill: #b6d8d5; font-size: 17px; font-weight: 700; letter-spacing: 0; }
      .tiny { fill: #86aaa7; font-size: 12px; font-weight: 700; letter-spacing: 0; }
      .line { fill: none; stroke: #54e6d0; stroke-width: 3; stroke-linecap: round; stroke-dasharray: 2 11; opacity: 0.72; }
      .wire { fill: none; stroke: #315961; stroke-width: 2; stroke-linecap: round; opacity: 0.72; }
    </style>
  </defs>

  <rect width="1280" height="640" fill="url(#bg)"/>
  <rect width="1280" height="640" fill="url(#grid)" opacity="0.7"/>
  <path d="M0 515 C150 465 241 585 407 532 C545 487 633 548 760 518 C920 480 1016 415 1280 485 L1280 640 L0 640 Z" fill="#0f2a2f" opacity="0.55"/>
  <path d="M80 88 H1200" stroke="#21434a" stroke-width="1"/>
  <path d="M80 552 H1200" stroke="#21434a" stroke-width="1"/>

  <g class="font">
    <text x="82" y="134" fill="#f8fffb" font-size="78" font-weight="900" letter-spacing="0">pura</text>
    <rect x="82" y="154" width="438" height="5" rx="2.5" fill="url(#accent)"/>
    <text x="84" y="207" fill="#d6f7ef" font-size="34" font-weight="800" letter-spacing="0">LAN Android device mirroring</text>
    <text x="86" y="244" fill="#8cb1ad" font-size="18" font-weight="650" letter-spacing="0">Hub + agents for local device walls, streams, and fast team debugging.</text>
  </g>

  <g opacity="0.9">
    <path class="wire" d="M351 370 C450 304 489 310 582 319"/>
    <path class="wire" d="M349 444 C455 430 511 392 585 368"/>
    <path class="wire" d="M708 318 C803 292 863 309 932 364"/>
    <path class="wire" d="M705 371 C815 423 876 428 936 446"/>
    <path class="line" d="M371 366 C458 315 506 319 589 327"/>
    <path class="line" d="M373 440 C466 431 526 394 592 371"/>
    <path class="line" d="M699 329 C790 305 859 313 918 367"/>
    <path class="line" d="M698 369 C799 414 873 430 923 447"/>
  </g>

  <g filter="url(#softShadow)">
    <rect x="560" y="250" width="164" height="164" rx="42" fill="url(#hub)" stroke="#ecfff8" stroke-width="2"/>
    <rect x="589" y="280" width="106" height="106" rx="26" fill="#0b2227"/>
    <circle cx="642" cy="333" r="34" fill="#122f35" stroke="#6ff0dc" stroke-width="5"/>
    <path d="M642 307 V333 L663 346" fill="none" stroke="#f7c948" stroke-width="8" stroke-linecap="round" stroke-linejoin="round"/>
    <circle cx="642" cy="333" r="6" fill="#f8fffb"/>
    <text class="font" x="642" y="444" fill="#e9fff8" font-size="21" font-weight="850" text-anchor="middle" letter-spacing="0">Hub</text>
    <text class="mono" x="642" y="468" fill="#73d8c7" font-size="13" font-weight="800" text-anchor="middle">:8787</text>
  </g>

  <g filter="url(#softShadow)">
    <rect x="918" y="248" width="250" height="246" rx="22" fill="#10252b" stroke="#24454d"/>
    <rect x="939" y="270" width="208" height="130" rx="14" fill="url(#screen)" stroke="#37636b"/>
    <rect x="960" y="293" width="58" height="83" rx="10" fill="#061014" stroke="#5eead4" stroke-width="2"/>
    <rect x="1030" y="293" width="96" height="12" rx="6" fill="#5eead4"/>
    <rect x="1030" y="317" width="74" height="10" rx="5" fill="#82a7a4"/>
    <rect x="1030" y="343" width="86" height="10" rx="5" fill="#2f565e"/>
    <rect x="1030" y="365" width="53" height="10" rx="5" fill="#f7c948"/>
    <rect x="949" y="421" width="188" height="38" rx="12" fill="#0a181d" stroke="#274950"/>
    <circle cx="973" cy="440" r="7" fill="#5eead4"/>
    <text class="font label" x="994" y="446">developer agent</text>
    <text class="mono tiny" x="951" y="480">pura agent --hub lan.local</text>
  </g>

  <g filter="url(#softShadow)">
    <rect x="117" y="323" width="252" height="173" rx="22" fill="#10252b" stroke="#25474f"/>
    <rect x="140" y="348" width="168" height="96" rx="12" fill="url(#screen)" stroke="#37636b"/>
    <path d="M159 418 L191 386 L216 410 L235 390 L289 433 H159 Z" fill="#1b4448"/>
    <circle cx="278" cy="372" r="12" fill="#f7c948"/>
    <rect x="319" y="365" width="20" height="110" rx="10" fill="#0b171b"/>
    <rect x="327" y="376" width="4" height="58" rx="2" fill="#5eead4"/>
    <text class="font label" x="140" y="474">Agent A</text>
    <text class="mono tiny" x="220" y="474">3 devices</text>
  </g>

  <g filter="url(#softShadow)">
    <rect x="431" y="326" width="72" height="145" rx="18" fill="#020608" stroke="#3f666b" stroke-width="2"/>
    <rect x="439" y="343" width="56" height="105" rx="11" fill="url(#phoneGlass)"/>
    <rect x="449" y="355" width="36" height="8" rx="4" fill="#5eead4"/>
    <rect x="449" y="376" width="25" height="49" rx="5" fill="#1e5154"/>
    <circle cx="467" cy="458" r="4" fill="#66898a"/>

    <rect x="236" y="268" width="68" height="137" rx="17" fill="#020608" stroke="#3f666b" stroke-width="2"/>
    <rect x="244" y="284" width="52" height="100" rx="11" fill="url(#phoneGlass)"/>
    <rect x="253" y="298" width="34" height="36" rx="6" fill="#264f53"/>
    <rect x="253" y="346" width="28" height="7" rx="3.5" fill="#f7c948"/>
    <circle cx="270" cy="394" r="4" fill="#66898a"/>

    <rect x="365" y="244" width="76" height="151" rx="19" fill="#020608" stroke="#3f666b" stroke-width="2"/>
    <rect x="373" y="261" width="60" height="110" rx="12" fill="url(#phoneGlass)"/>
    <rect x="384" y="275" width="39" height="9" rx="4.5" fill="#5eead4"/>
    <rect x="384" y="299" width="31" height="52" rx="6" fill="#1e5154"/>
    <circle cx="403" cy="383" r="4" fill="#66898a"/>
  </g>

  <g filter="url(#softShadow)">
    <rect x="812" y="162" width="82" height="163" rx="20" fill="#020608" stroke="#456b70" stroke-width="2"/>
    <rect x="821" y="180" width="64" height="120" rx="13" fill="url(#phoneGlass)"/>
    <path d="M833 282 L849 248 L861 265 L872 238 L881 282 Z" fill="#244e52"/>
    <rect x="834" y="196" width="36" height="8" rx="4" fill="#5eead4"/>
    <circle cx="853" cy="313" r="4" fill="#66898a"/>

    <rect x="1006" y="149" width="72" height="145" rx="18" fill="#020608" stroke="#456b70" stroke-width="2"/>
    <rect x="1014" y="166" width="56" height="105" rx="12" fill="url(#phoneGlass)"/>
    <rect x="1025" y="181" width="34" height="8" rx="4" fill="#f7c948"/>
    <rect x="1025" y="204" width="28" height="48" rx="6" fill="#1e5154"/>
    <circle cx="1042" cy="283" r="4" fill="#66898a"/>
  </g>

  <g class="font">
    <rect x="796" y="73" width="351" height="56" rx="18" fill="#0b1d22" stroke="#2b5058"/>
    <circle cx="825" cy="101" r="9" fill="#5eead4"/>
    <text x="846" y="108" fill="#dff8ef" font-size="18" font-weight="800" letter-spacing="0">same LAN, live Android screens</text>
  </g>

  <g class="font">
    <rect x="497" y="526" width="286" height="42" rx="21" fill="#0b1d22" stroke="#2b5058"/>
    <text x="640" y="553" fill="#d7f7ef" font-size="16" font-weight="800" text-anchor="middle" letter-spacing="0">open-source device lab tooling</text>
  </g>
</svg>
